<svg width="32" height="32" viewBox="0 0 32 32" fill="none" xmlns="http://www.w3.org/2000/svg">
<mask id="path-2-inside-1_2_849" fill="white">
<path fill-rule="evenodd" clip-rule="evenodd" d="M12 10.5C12 11.3284 11.3284 12 10.5 12C9.67157 12 9 11.3284 9 10.5C9 9.67157 9.67157 9 10.5 9C11.3284 9 12 9.67157 12 10.5ZM13.75 9.75H22.25C22.664 9.75 23 10.086 23 10.5C23 10.914 22.664 11.25 22.25 11.25H13.75C13.336 11.25 13 10.914 13 10.5C13 10.086 13.336 9.75 13.75 9.75ZM10.5 17.5C11.3284 17.5 12 16.8284 12 16C12 15.1716 11.3284 14.5 10.5 14.5C9.67157 14.5 9 15.1716 9 16C9 16.8284 9.67157 17.5 10.5 17.5ZM13.75 15.25H22.25C22.664 15.25 23 15.586 23 16C23 16.414 22.664 16.75 22.25 16.75H13.75C13.336 16.75 13 16.414 13 16C13 15.586 13.336 15.25 13.75 15.25ZM10.5 23C11.3284 23 12 22.3284 12 21.5C12 20.6716 11.3284 20 10.5 20C9.67157 20 9 20.6716 9 21.5C9 22.3284 9.67157 23 10.5 23ZM13.75 20.75H22.25C22.664 20.75 23 21.086 23 21.5C23 21.914 22.664 22.25 22.25 22.25H13.75C13.336 22.25 13 21.914 13 21.5C13 21.086 13.336 20.75 13.75 20.75Z"/>
</mask>
<path d="M10.5 13C11.8807 13 13 11.8807 13 10.5H11C11 10.7761 10.7761 11 10.5 11V13ZM8 10.5C8 11.8807 9.11929 13 10.5 13V11C10.2239 11 10 10.7761 10 10.5H8ZM10.5 8C9.11929 8 8 9.11929 8 10.5H10C10 10.2239 10.2239 10 10.5 10V8ZM13 10.5C13 9.11929 11.8807 8 10.5 8V10C10.7761 10 11 10.2239 11 10.5H13ZM22.25 8.75H13.75V10.75H22.25V8.75ZM24 10.5C24 9.53372 23.2163 8.75 22.25 8.75V10.75C22.1117 10.75 22 10.6383 22 10.5H24ZM22.25 12.25C23.2163 12.25 24 11.4663 24 10.5H22C22 10.3617 22.1117 10.25 22.25 10.25V12.25ZM13.75 12.25H22.25V10.25H13.75V12.25ZM12 10.5C12 11.4663 12.7837 12.25 13.75 12.25V10.25C13.8883 10.25 14 10.3617 14 10.5H12ZM13.75 8.75C12.7837 8.75 12 9.53372 12 10.5H14C14 10.6383 13.8883 10.75 13.75 10.75V8.75ZM11 16C11 16.2761 10.7761 16.5 10.5 16.5V18.5C11.8807 18.5 13 17.3807 13 16H11ZM10.5 15.5C10.7761 15.5 11 15.7239 11 16H13C13 14.6193 11.8807 13.5 10.5 13.5V15.5ZM10 16C10 15.7239 10.2239 15.5 10.5 15.5V13.5C9.11929 13.5 8 14.6193 8 16H10ZM10.5 16.5C10.2239 16.5 10 16.2761 10 16H8C8 17.3807 9.11929 18.5 10.5 18.5V16.5ZM22.25 14.25H13.75V16.25H22.25V14.25ZM24 16C24 15.0337 23.2163 14.25 22.25 14.25V16.25C22.1117 16.25 22 16.1383 22 16H24ZM22.25 17.75C23.2163 17.75 24 16.9663 24 16H22C22 15.8617 22.1117 15.75 22.25 15.75V17.75ZM13.75 17.75H22.25V15.75H13.75V17.75ZM12 16C12 16.9663 12.7837 17.75 13.75 17.75V15.75C13.8883 15.75 14 15.8617 14 16H12ZM13.75 14.25C12.7837 14.25 12 15.0337 12 16H14C14 16.1383 13.8883 16.25 13.75 16.25V14.25ZM11 21.5C11 21.7761 10.7761 22 10.5 22V24C11.8807 24 13 22.8807 13 21.5H11ZM10.5 21C10.7761 21 11 21.2239 11 21.5H13C13 20.1193 11.8807 19 10.5 19V21ZM10 21.5C10 21.2239 10.2239 21 10.5 21V19C9.11929 19 8 20.1193 8 21.5H10ZM10.5 22C10.2239 22 10 21.7761 10 21.5H8C8 22.8807 9.11929 24 10.5 24V22ZM22.25 19.75H13.75V21.75H22.25V19.75ZM24 21.5C24 20.5337 23.2163 19.75 22.25 19.75V21.75C22.1117 21.75 22 21.6383 22 21.5H24ZM22.25 23.25C23.2163 23.25 24 22.4663 24 21.5H22C22 21.3617 22.1117 21.25 22.25 21.25V23.25ZM13.75 23.25H22.25V21.25H13.75V23.25ZM12 21.5C12 22.4663 12.7837 23.25 13.75 23.25V21.25C13.8883 21.25 14 21.3617 14 21.5H12ZM13.75 19.75C12.7837 19.75 12 20.5337 12 21.5H14C14 21.6383 13.8883 21.75 13.75 21.75V19.75Z" fill="#838691" mask="url(#path-2-inside-1_2_849)"/>
</svg>
